# Max2Obj Version 4.0 Mar 10th, 2001
#
# object clock to come ...
#
v  8.657125 79.411026 -0.000000
v  8.135036 82.371941 0.000000
v  6.631742 84.975716 0.000000
v  4.328562 86.908318 0.000000
v  1.503293 87.936630 0.000000
v  -1.503295 87.936630 0.000000
v  -4.328563 86.908318 0.000000
v  -6.631743 84.975716 0.000000
v  -8.135037 82.371933 0.000000
v  -8.657125 79.411026 -0.000000
v  -8.135036 76.450111 -0.000000
v  -6.631741 73.846329 -0.000000
v  -4.328560 71.913734 -0.000000
v  -1.503292 70.885422 -0.000000
v  1.503296 70.885422 -0.000000
v  4.328565 71.913734 -0.000000
v  6.631744 73.846336 -0.000000
v  8.135037 76.450119 -0.000000
v  7.963687 79.411026 3.567835
v  7.483418 82.134766 3.567835
v  6.100538 84.529984 3.567835
v  3.981843 86.307785 3.567835
v  1.382879 87.253723 3.567835
v  -1.382881 87.253723 3.567835
v  -3.981844 86.307777 3.567835
v  -6.100539 84.529984 3.567835
v  -7.483418 82.134766 3.567835
v  -7.963687 79.411026 3.567835
v  -7.483417 76.687286 3.567835
v  -6.100537 74.292068 3.567835
v  -3.981842 72.514267 3.567835
v  -1.382878 71.568329 3.567835
v  1.382882 71.568329 3.567835
v  3.981846 72.514275 3.567835
v  6.100540 74.292068 3.567835
v  7.483418 76.687286 3.567835
v  0.000000 79.411026 4.003584
# 37 vertices

vt  0.986537 0.499474 -0.500000
vt  0.957229 0.668253 -0.500000
vt  0.872839 0.816675 -0.500000
vt  0.743546 0.926838 -0.500000
vt  0.584945 0.985455 -0.500000
vt  0.416166 0.985455 -0.500000
vt  0.257565 0.926838 -0.500000
vt  0.128272 0.816675 -0.500000
vt  0.043882 0.668253 -0.500000
vt  0.014574 0.499474 -0.500000
vt  0.043883 0.330694 -0.500000
vt  0.128272 0.182272 -0.500000
vt  0.257565 0.072109 -0.500000
vt  0.416166 0.013492 -0.500000
vt  0.584945 0.013492 -0.500000
vt  0.743546 0.072109 -0.500000
vt  0.872839 0.182272 -0.500000
vt  0.957229 0.330694 -0.500000
vt  0.917042 0.499474 0.391160
vt  0.891925 0.644118 0.391160
vt  0.819603 0.771316 0.391160
vt  0.708799 0.865726 0.391160
vt  0.572878 0.915960 0.391160
vt  0.428233 0.915960 0.391160
vt  0.292312 0.865726 0.391160
vt  0.181509 0.771316 0.391160
vt  0.109186 0.644118 0.391160
vt  0.084069 0.499474 0.391160
vt  0.109187 0.354829 0.391160
vt  0.181509 0.227631 0.391160
vt  0.292313 0.133222 0.391160
vt  0.428234 0.082987 0.391160
vt  0.572878 0.082987 0.391160
vt  0.708799 0.133222 0.391160
vt  0.819603 0.227632 0.391160
vt  0.891925 0.354830 0.391160
vt  0.500556 0.499474 0.500000
# 37 texture vertices

vn  0.399460 0.023479 0.077638
vn  0.367339 0.158686 0.077638
vn  0.290912 0.274753 0.077638
vn  0.179397 0.357681 0.077638
vn  0.046244 0.397468 0.077638
vn  -0.092487 0.389314 0.077638
vn  -0.220063 0.334203 0.077638
vn  -0.321096 0.238782 0.077638
vn  -0.383399 0.114561 0.077638
vn  -0.399460 -0.023479 0.077638
vn  -0.367339 -0.158686 0.077638
vn  -0.290912 -0.274753 0.077638
vn  -0.179397 -0.357681 0.077638
vn  -0.046244 -0.397468 0.077638
vn  0.092487 -0.389314 0.077638
vn  0.220063 -0.334203 0.077638
vn  0.321096 -0.238782 0.077638
vn  0.383399 -0.114561 0.077638
vn  1.182785 -0.069519 0.229884
vn  1.135231 0.339210 0.229884
vn  0.950752 0.707025 0.229884
vn  0.651597 0.989562 0.229884
vn  0.273851 1.152744 0.229884
vn  -0.136926 1.176887 0.229884
vn  -0.531187 1.059081 0.229884
vn  -0.861380 0.813534 0.229884
vn  -1.087677 0.469862 0.229884
vn  -1.182785 0.069519 0.229884
vn  -1.135231 -0.339210 0.229884
vn  -0.950751 -0.707025 0.229884
vn  -0.651597 -0.989562 0.229884
vn  -0.273851 -1.152744 0.229884
vn  0.136926 -1.176887 0.229884
vn  0.531188 -1.059081 0.229884
vn  0.861380 -0.813534 0.229884
vn  1.087677 -0.469862 0.229884
vn  0.000000 -0.000000 0.407611
# 37 vertex normals

g clock
s 8
f 20/20/20 19/19/19 1/1/1 2/2/2
f 21/21/21 20/20/20 2/2/2 3/3/3
f 22/22/22 21/21/21 3/3/3 4/4/4
f 23/23/23 22/22/22 4/4/4 5/5/5
f 24/24/24 23/23/23 5/5/5 6/6/6
f 25/25/25 24/24/24 6/6/6 7/7/7
f 26/26/26 25/25/25 7/7/7 8/8/8
f 27/27/27 26/26/26 8/8/8 9/9/9
f 28/28/28 27/27/27 9/9/9 10/10/10
f 29/29/29 28/28/28 10/10/10 11/11/11
f 30/30/30 29/29/29 11/11/11 12/12/12
f 31/31/31 30/30/30 12/12/12 13/13/13
f 32/32/32 31/31/31 13/13/13 14/14/14
f 33/33/33 32/32/32 14/14/14 15/15/15
f 34/34/34 33/33/33 15/15/15 16/16/16
f 35/35/35 34/34/34 16/16/16 17/17/17
f 36/36/36 35/35/35 17/17/17 18/18/18
f 19/19/19 36/36/36 18/18/18 1/1/1
s 1
f 37/37/37 19/19/19 20/20/20
f 37/37/37 20/20/20 21/21/21
f 37/37/37 21/21/21 22/22/22
f 37/37/37 22/22/22 23/23/23
f 37/37/37 23/23/23 24/24/24
f 37/37/37 24/24/24 25/25/25
f 37/37/37 25/25/25 26/26/26
f 37/37/37 26/26/26 27/27/27
f 37/37/37 27/27/27 28/28/28
f 37/37/37 28/28/28 29/29/29
f 37/37/37 29/29/29 30/30/30
f 37/37/37 30/30/30 31/31/31
f 37/37/37 31/31/31 32/32/32
f 37/37/37 32/32/32 33/33/33
f 37/37/37 33/33/33 34/34/34
f 37/37/37 34/34/34 35/35/35
f 37/37/37 35/35/35 36/36/36
f 37/37/37 36/36/36 19/19/19
# 36 faces

g
