# Max2Obj Version 4.0 Mar 10th, 2001
#
# object matress06 to come ...
#
v  -22.792017 25.621609 -49.809368
v  38.065601 26.187185 -50.017040
v  -24.108345 25.621609 -22.007278
v  38.065594 25.621609 -24.426418
v  -22.792019 24.033260 -51.062824
v  -24.511292 24.033260 -49.809368
v  -25.827625 24.033260 -22.007278
v  39.784863 24.033260 -24.426418
v  39.784878 24.598835 -50.017040
v  38.065594 24.598835 -51.270493
v  -22.792019 19.420153 -51.062824
v  -24.511292 19.420153 -49.809368
v  -25.827625 19.420153 -22.007278
v  39.784863 19.420153 -24.426418
v  39.784878 19.985727 -50.017040
v  38.065594 19.985727 -51.270493
v  38.065594 17.831802 -24.426418
v  -24.108345 17.831802 -22.007278
v  38.065601 18.397379 -50.017040
v  -22.792017 17.831802 -49.809368
v  6.978619 24.220474 -22.872522
v  6.978629 24.274363 -49.809357
v  6.978628 22.686014 -51.062813
v  6.978628 19.420153 -51.062813
v  6.978629 17.831802 -49.809357
v  6.978619 17.831802 -22.872522
v  -0.980215 24.818703 -33.058414
v  10.002851 26.294338 -35.846916
v  -21.489588 26.431002 -37.005077
v  -2.303875 24.818703 -40.565273
v  8.046917 26.579517 -42.390396
v  -24.691479 26.366331 -45.244820
v  -3.933100 24.818703 -49.805088
v  7.383742 26.502102 -50.700630
v  -21.958126 26.158569 -29.743183
v  -1.231551 29.714310 -34.483818
v  -2.303875 30.847298 -40.565273
v  -3.456607 29.922073 -47.102753
v  -16.771755 24.818703 -38.014198
v  -15.517187 24.553207 -30.899193
v  3.553293 24.818703 -41.598049
v  4.838155 24.818703 -34.311195
v  -18.270975 24.818703 -46.516708
v  2.115701 24.818703 -50.370564
v  -15.768528 28.546230 -32.324596
v  -16.771755 29.679218 -38.014198
v  4.586821 28.678501 -35.736603
v  3.553293 29.811489 -41.598049
v  -17.969275 28.753994 -44.805679
v  2.417972 28.886265 -48.656288
v  -10.366836 24.685955 -31.403309
v  -11.690495 31.061588 -38.910164
v  -12.843226 30.136362 -45.447643
v  -11.690495 24.818703 -38.910164
v  -13.319720 24.818703 -48.149986
v  -10.618173 29.928600 -32.828709
v  10.810064 26.431002 -40.887753
v  15.628320 24.818703 -40.641430
v  14.998639 24.553207 -33.444153
v  8.477970 26.158569 -33.994572
v  30.263485 24.818703 -39.361015
v  36.188377 24.818703 -38.842651
v  35.543484 24.818703 -31.471542
v  29.599131 24.818703 -31.767353
v  9.849875 26.366331 -49.675446
v  16.380796 24.818703 -49.242252
v  31.081217 24.818703 -48.707664
v  37.070267 24.818703 -47.688328
v  15.124787 28.546230 -34.886040
v  15.628320 29.679218 -40.641430
v  35.669636 28.678501 -32.913429
v  36.188377 29.811489 -38.842651
v  30.263485 30.847298 -39.361015
v  29.725273 29.714310 -33.209240
v  16.229372 28.753994 -47.511440
v  36.918545 28.886265 -45.954224
v  30.842056 29.922073 -45.974087
v  42.244228 26.502102 -46.643677
v  21.586067 24.818703 -49.538395
v  21.346901 30.136362 -46.804802
v  20.768332 24.818703 -40.191734
v  20.103975 24.685955 -32.598080
v  40.733959 26.579517 -38.444962
v  40.929672 26.294338 -31.618216
v  20.230120 29.928600 -34.039959
v  20.768335 31.061588 -40.191734
# 86 vertices

vt  0.077592 0.162890 0.016507
vt  0.083681 0.518907 0.016508
vt  0.305729 0.161285 0.016595
vt  0.286016 0.512255 0.016597
vt  0.053840 0.153096 0.016497
vt  0.076261 0.139578 0.016505
vt  0.304089 0.138693 0.016584
vt  0.285149 0.539159 0.016586
vt  0.083299 0.545011 0.016506
vt  0.060444 0.532307 0.016498
vt  0.051423 0.109113 0.016492
vt  0.070018 0.090049 0.016498
vt  0.300600 0.085836 0.016561
vt  0.282989 0.589117 0.016563
vt  0.078821 0.589294 0.016499
vt  0.059881 0.586317 0.016493
vt  0.035054 0.666299 0.589897
vt  0.043445 0.657908 0.589897
vt  0.223759 0.651484 0.589897
vt  0.223759 0.971692 0.589897
vt  0.042055 0.971692 1.256452
vt  0.033664 0.963301 1.256452
vt  0.223759 0.963301 -1.282044
vt  0.223759 0.659874 -1.282044
vt  0.042055 0.963301 -0.615489
vt  0.043445 0.666299 -1.282044
vt  0.293864 0.338764 0.016611
vt  0.080515 0.338888 0.016513
vt  0.053033 0.339256 0.016501
vt  0.018450 0.339828 0.016490
vt  0.035054 0.811588 0.589897
vt  0.043445 0.811588 -1.282044
vt  0.223759 0.811588 -1.282044
vt  0.020337 0.168529 0.016486
vt  0.026346 0.518111 0.016486
vt  0.753364 0.767624 -2.927514
vt  0.764879 0.651321 -1.482084
vt  0.855589 0.968446 -1.348219
vt  0.857985 0.767624 -2.927514
vt  0.857985 0.659451 -1.202743
vt  0.974592 0.986173 -1.411565
vt  0.986757 0.767624 -2.927514
vt  0.971890 0.651321 -1.278574
vt  0.758551 0.986173 -1.615075
vt  0.756539 0.771375 -2.927514
vt  0.767913 0.672765 -1.482084
vt  0.857516 0.958705 -1.348219
vt  0.859883 0.680796 -1.202743
vt  0.975066 0.976215 -1.411565
vt  0.987083 0.771375 -2.927514
vt  0.972397 0.672765 -1.278574
vt  0.761663 0.976215 -1.615075
vt  0.776162 0.771375 1.867879
vt  0.859883 0.771375 2.977674
vt  0.949881 0.771375 2.071389
vt  0.761934 0.909689 -3.187575
vt  0.759568 0.721370 -2.927514
vt  0.976933 0.909689 -2.927514
vt  0.980393 0.720276 -2.927514
vt  0.781556 0.909689 0.723712
vt  0.859883 0.909689 1.833507
vt  0.857985 0.918824 -2.927514
vt  0.758825 0.918824 -3.187575
vt  0.779191 0.721370 0.853274
vt  0.857985 0.706412 -2.927514
vt  0.755849 0.700602 -2.927514
vt  0.859883 0.721370 1.963068
vt  0.976481 0.918824 -2.927514
vt  0.953378 0.909689 0.927222
vt  0.979984 0.705305 -2.927514
vt  0.956793 0.720276 1.056783
vt  0.756539 0.841545 -3.057544
vt  0.859883 0.841545 3.187577
vt  0.949881 0.841545 2.281291
vt  0.987083 0.841545 -2.927514
vt  0.776162 0.841545 2.077782
vt  0.753364 0.865721 -3.057544
vt  0.857985 0.865721 -2.927514
vt  0.986757 0.865721 -2.927514
vt  0.855589 0.968446 -1.348219
vt  0.857985 0.918824 -2.927514
vt  0.758825 0.918824 -3.187575
vt  0.758551 0.986173 -1.615075
vt  0.857985 0.767624 -2.927514
vt  0.857985 0.706412 -2.927514
vt  0.756430 0.706412 -2.927514
vt  0.753364 0.767624 -2.927514
vt  0.974592 0.986173 -1.411565
vt  0.976481 0.918824 -2.927514
vt  0.986757 0.767624 -2.927514
vt  0.979984 0.705305 -2.927514
vt  0.781556 0.919911 0.723712
vt  0.859883 0.919911 1.833507
vt  0.857516 0.966152 -1.348219
vt  0.761663 0.982672 -1.615075
vt  0.779191 0.721968 0.853274
vt  0.859883 0.721968 1.963068
vt  0.859883 0.779011 2.977674
vt  0.776162 0.779011 1.867879
vt  0.953378 0.919911 0.927222
vt  0.975066 0.982672 -1.411565
vt  0.956793 0.720937 1.056783
vt  0.949881 0.779011 2.071389
vt  0.761934 0.919911 -3.187575
vt  0.759568 0.721968 -2.927514
vt  0.756539 0.779011 -2.927514
vt  0.972397 0.670629 -1.278574
vt  0.980393 0.720937 -2.927514
vt  0.987083 0.779011 -2.927514
vt  0.987083 0.870425 -2.927514
vt  0.949881 0.870425 2.281291
vt  0.857985 0.865721 -2.927514
vt  0.753364 0.865721 -3.057544
vt  0.857985 0.659451 -1.202743
vt  0.764879 0.651321 -1.482084
vt  0.986757 0.865721 -2.927514
vt  0.971890 0.651321 -1.278574
vt  0.776162 0.870425 2.077782
vt  0.859883 0.870425 3.187577
vt  0.767913 0.670629 -1.482084
vt  0.859883 0.678206 -1.202743
vt  0.756539 0.870425 -3.057544
vt  0.976933 0.919911 -2.927514
# 123 texture vertices

vn  -0.218667 0.751207 -0.217431
vn  0.168391 0.754297 -0.257957
vn  -0.113017 0.835208 -0.006163
vn  0.180320 0.814247 0.008856
vn  -0.181436 0.320037 -0.606127
vn  -0.549280 0.294202 -0.263685
vn  -0.509437 0.514885 -0.027663
vn  0.611462 0.257562 0.003735
vn  0.485512 0.392251 -0.317885
vn  0.131626 0.382090 -0.597236
vn  -0.142631 -0.249630 -0.638848
vn  -0.479054 -0.387117 -0.332897
vn  -0.610716 -0.257443 -0.033163
vn  0.509906 -0.515125 -0.007469
vn  0.555093 -0.297140 -0.247036
vn  0.184493 -0.207672 -0.636404
vn  0.130662 -0.830675 -0.007772
vn  -0.192613 -0.809281 -0.010459
vn  0.192153 -0.736744 -0.271823
vn  -0.144269 -0.725073 -0.321801
vn  0.000038 0.848502 0.001114
vn  -0.003325 0.782696 -0.265354
vn  -0.002920 0.211063 -0.665662
vn  0.000461 -0.422269 -0.596118
vn  0.002157 -0.819408 -0.178417
vn  0.000000 -0.848504 -0.000000
vn  0.118797 -0.557016 0.632782
vn  0.321836 -0.028502 -0.003896
vn  -0.606639 -1.659862 0.059237
vn  0.000865 -0.848500 -0.001815
vn  0.771746 -1.711402 -0.191669
vn  -0.533228 -0.903518 0.210907
vn  -0.080841 -1.227209 -0.565726
vn  0.044001 -0.427465 -0.624877
vn  -0.300649 -0.016515 -0.022654
vn  0.218829 1.123562 0.714255
vn  0.059120 0.844565 0.019128
vn  0.054696 2.143242 -0.741621
vn  -0.070554 -0.843179 0.014142
vn  -0.137175 -1.307332 0.590221
vn  0.085274 -0.840834 -0.012684
vn  0.118797 -1.405520 0.632782
vn  -0.159329 -1.278522 -0.579154
vn  -0.105187 -0.451437 -0.596838
vn  -0.299445 1.910805 0.766565
vn  -0.173607 0.813933 0.056021
vn  0.346853 2.020384 0.770126
vn  0.173227 0.815624 -0.038491
vn  -0.345034 2.052051 -0.688795
vn  -0.040074 1.234788 -0.680894
vn  0.059756 -0.502570 0.613362
vn  -0.033034 0.847057 0.018902
vn  -0.301613 1.754401 -1.184479
vn  0.001151 -0.848458 -0.006975
vn  -0.087882 -0.391970 -0.571616
vn  -0.209840 1.912557 0.903901
vn  -0.599306 -1.660068 -0.122792
vn  -0.071349 -0.843195 -0.007279
vn  -0.265630 -1.308111 0.527092
vn  -0.285193 -0.016363 -0.111083
vn  0.001245 -0.848500 -0.001497
vn  0.085230 -0.840833 0.013059
vn  -0.027985 -1.406210 0.644953
vn  -0.027985 -0.557707 0.644953
vn  -0.563266 -0.902718 0.045510
vn  -0.023118 -1.278154 -0.607319
vn  0.049545 -1.227550 -0.570032
vn  0.033027 -0.452140 -0.606647
vn  -0.462927 1.911176 0.649406
vn  -0.180484 0.814250 0.002667
vn  0.161101 2.017823 0.844217
vn  0.176096 0.815747 0.014180
vn  0.052780 0.844461 0.035986
vn  0.050198 1.122296 0.753268
vn  -0.177545 2.051232 -0.768218
vn  0.114926 1.234453 -0.668538
vn  0.220240 2.143704 -0.699764
vn  0.183470 -0.428223 -0.589445
vn  0.044064 -0.392440 -0.577630
vn  -0.024035 1.753030 -1.232582
vn  0.002686 -0.848459 -0.006395
vn  -0.080808 -0.502170 0.610929
vn  0.789004 -1.711075 0.043934
vn  0.311552 -0.030020 0.091589
vn  -0.407395 1.915214 0.813007
vn  -0.036182 0.847089 0.008473
# 86 vertex normals

g matress06
s 1
f 3/3/3 21/27/21 22/28/22 1/1/1
f 7/7/7 3/3/3 1/1/1 6/6/6
f 9/9/9 2/2/2 4/4/4 8/8/8
f 10/10/10 23/29/23 22/28/22 2/2/2
f 12/12/12 6/6/6 5/5/5 11/11/11
f 13/13/13 7/7/7 6/6/6 12/12/12
f 15/15/15 9/9/9 8/8/8 14/14/14
f 16/16/16 10/10/10 9/9/9 15/15/15
f 16/35/16 24/30/24 23/29/23 10/10/10
f 18/24/18 13/19/13 12/18/12 20/26/20
f 19/25/19 15/21/15 14/20/14 17/23/17
f 19/25/19 25/32/25 24/31/24 16/22/16
f 17/23/17 26/33/26 25/32/25 19/25/19
f 4/4/4 2/2/2 22/28/22 21/27/21
f 5/5/5 1/1/1 22/28/22 23/29/23
f 11/34/11 5/5/5 23/29/23 24/30/24
f 20/26/20 11/17/11 24/31/24 25/32/25
f 18/24/18 20/26/20 25/32/25 26/33/26
f 29/38/29 39/62/39 40/63/40 35/44/35
f 30/39/30 41/65/41 42/66/42 27/36/27
f 32/41/32 43/68/43 39/62/39 29/38/29
f 33/42/33 44/70/44 41/65/41 30/39/30
f 45/60/45 46/61/46 29/47/29 35/52/35
f 47/64/47 48/67/48 37/54/37 36/53/36
f 46/61/46 49/69/49 32/49/32 29/47/29
f 48/67/48 50/71/50 38/55/38 37/54/37
f 42/57/42 47/64/47 36/53/36 27/45/27
f 33/50/33 55/75/55 53/74/53 38/55/38
f 54/78/54 51/77/51 40/63/40 39/62/39
f 31/40/31 28/37/28 42/66/42 41/65/41
f 55/79/55 54/78/54 39/62/39 43/68/43
f 34/43/34 31/40/31 41/65/41 44/70/44
f 56/76/56 52/73/52 46/61/46 45/60/45
f 28/46/28 31/48/31 48/67/48 47/64/47
f 46/61/46 52/73/52 53/74/53 49/69/49
f 31/48/31 34/51/34 50/71/50 48/67/48
f 51/72/51 56/76/56 45/60/45 40/56/40
f 33/50/33 38/55/38 50/71/50 44/59/44
f 55/75/55 43/58/43 49/69/49 53/74/53
f 30/39/30 27/36/27 51/77/51 54/78/54
f 33/42/33 30/39/30 54/78/54 55/79/55
f 36/53/36 37/54/37 52/73/52 56/76/56
f 52/73/52 37/54/37 38/55/38 53/74/53
f 27/45/27 36/53/36 56/76/56 51/72/51
f 57/80/57 58/81/58 59/82/59 60/83/60
f 61/84/61 62/85/62 63/86/63 64/87/64
f 65/88/65 66/89/66 58/81/58 57/80/57
f 67/90/67 68/91/68 62/85/62 61/84/61
f 69/92/69 70/93/70 57/94/57 60/95/60
f 71/96/71 72/97/72 73/98/73 74/99/74
f 70/93/70 75/100/75 65/101/65 57/94/57
f 72/97/72 76/102/76 77/103/77 73/98/73
f 63/105/63 71/96/71 74/99/74 64/106/64
f 67/109/67 79/110/79 80/111/80 77/103/77
f 81/112/81 82/113/82 59/82/59 58/81/58
f 83/114/83 84/115/84 63/86/63 62/85/62
f 79/116/79 81/112/81 58/81/58 66/89/66
f 78/117/78 83/114/83 62/85/62 68/91/68
f 85/118/85 86/119/86 70/93/70 69/92/69
f 84/120/84 83/121/83 72/97/72 71/96/71
f 70/93/70 86/119/86 80/111/80 75/100/75
f 83/121/83 78/107/78 76/102/76 72/97/72
f 82/122/82 85/118/85 69/92/69 59/104/59
f 67/109/67 77/103/77 76/102/76 68/108/68
f 79/110/79 66/123/66 75/100/75 80/111/80
f 61/84/61 64/87/64 82/113/82 81/112/81
f 67/90/67 61/84/61 81/112/81 79/116/79
f 74/99/74 73/98/73 86/119/86 85/118/85
f 86/119/86 73/98/73 77/103/77 80/111/80
f 64/106/64 74/99/74 85/118/85 82/122/82
f 1/1/1 5/5/5 6/6/6
f 2/2/2 9/9/9 10/10/10
f 11/17/11 20/26/20 12/18/12
f 15/21/15 19/25/19 16/22/16
f 40/56/40 45/60/45 35/52/35
f 34/51/34 44/59/44 50/71/50
f 42/57/42 28/46/28 47/64/47
f 43/58/43 32/49/32 49/69/49
f 59/104/59 69/92/69 60/95/60
f 78/107/78 68/108/68 76/102/76
f 63/105/63 84/120/84 71/96/71
f 66/123/66 65/101/65 75/100/75
# 82 faces

g
