# Max2Obj Version 4.0 Mar 10th, 2001
#
# object pic3 to come ...
#
v  -20.608860 2.180388 0.616546
v  11.219600 2.180388 0.616546
v  -23.764616 -1.259946 -0.616546
v  14.375355 -1.259946 -0.616546
v  -20.608860 27.698471 0.616546
v  11.219600 27.698471 0.616546
v  -23.764616 31.138805 -0.616546
v  14.375355 31.138805 -0.616546
v  -19.875690 3.084158 -0.025215
v  10.579251 3.084159 -0.025215
v  10.579251 26.794697 -0.025215
v  -19.875690 26.794697 -0.025215
# 12 vertices

vt  0.197013 0.339285 -1.762124
vt  0.909362 0.339285 -1.762116
vt  0.126384 0.262287 1.762101
vt  0.979991 0.262287 1.762111
vt  0.197013 0.910402 -1.762112
vt  0.909362 0.910402 -1.762104
vt  0.126384 0.987400 1.762116
vt  0.979991 0.987400 1.762126
vt  0.226530 0.377148 0.072056
vt  0.881923 0.377148 0.072063
vt  0.881923 0.872539 0.072075
vt  0.226530 0.872539 0.072067
vt  0.552858 0.018081 1.762101
vt  0.816981 0.018081 1.762111
vt  0.552858 0.242445 1.762116
vt  0.816981 0.242445 1.762126
# 16 texture vertices

vn  0.000000 -0.236109 0.658745
vn  0.000000 -0.118054 0.329373
vn  0.000000 -0.118055 0.329373
vn  0.000000 -0.236109 0.658745
vn  0.000000 0.236109 0.658745
vn  0.000000 0.118054 0.329373
vn  0.000000 0.118055 0.329373
vn  0.000000 0.236109 0.658745
vn  -0.000000 0.000000 0.349890
vn  -0.000000 0.000000 0.349890
vn  -0.000000 0.000000 0.349890
vn  0.000000 0.000000 0.349890
# 12 vertex normals

g pic3
s 2
f 4/4/4 2/2/2 1/1/1 3/3/3
s 4
f 8/8/8 7/7/7 5/5/5 6/6/6
s 8
f 11/11/11 12/12/12 9/9/9 10/10/10
s 16
f 8/8/8 6/6/6 2/2/2 4/4/4
s 32
f 7/15/7 8/16/8 4/14/4 3/13/3
s 64
f 5/5/5 7/7/7 3/3/3 1/1/1
s 0
f 10/10/10 9/9/9 1/1/1 2/2/2
f 11/11/11 10/10/10 2/2/2 6/6/6
f 12/12/12 11/11/11 6/6/6 5/5/5
f 9/9/9 12/12/12 5/5/5 1/1/1
# 10 faces

g
