# Max2Obj Version 4.0 Mar 10th, 2001
#
# object pic6 to come ...
#
v  -11.219600 38.474426 0.616546
v  11.219600 38.474426 0.616546
v  -12.847844 36.331665 -0.616546
v  12.847844 36.331665 -0.616546
v  -11.219600 68.004280 0.616546
v  11.219600 68.004280 0.616546
v  -12.847844 70.147041 -0.616546
v  12.847844 70.147041 -0.616546
v  -8.778761 41.625481 -0.025215
v  8.871579 41.625481 -0.025215
v  8.871579 64.853226 -0.025215
v  -8.778761 64.853226 -0.025215
# 12 vertices

vt  0.353409 0.197367 -1.762118
vt  0.938936 0.197367 -1.762123
vt  0.310922 0.141454 1.762109
vt  0.981424 0.141454 1.762103
vt  0.353409 0.883611 -1.762104
vt  0.938936 0.883611 -1.762110
vt  0.310922 0.939524 1.762125
vt  0.981424 0.939524 1.762118
vt  0.431295 0.293843 0.072061
vt  0.870202 0.293843 0.072055
vt  0.870202 0.787135 0.072069
vt  0.431295 0.787135 0.072074
vt  0.013836 0.295716 1.762109
vt  0.294907 0.295716 1.762103
vt  0.013836 0.718998 1.762125
vt  0.294907 0.718998 1.762118
# 16 texture vertices

vn  0.000000 -0.349034 0.606521
vn  0.000000 -0.174517 0.303261
vn  0.000000 -0.174517 0.303261
vn  0.000000 -0.349034 0.606521
vn  0.000000 0.349034 0.606521
vn  0.000000 0.174517 0.303261
vn  0.000000 0.174517 0.303261
vn  0.000000 0.349034 0.606521
vn  -0.000000 0.000000 0.349890
vn  -0.000000 0.000000 0.349890
vn  -0.000000 0.000000 0.349890
vn  0.000000 0.000000 0.349890
# 12 vertex normals

g pic6
s 2
f 4/4/4 2/2/2 1/1/1 3/3/3
s 4
f 8/8/8 7/7/7 5/5/5 6/6/6
s 8
f 11/11/11 12/12/12 9/9/9 10/10/10
s 16
f 8/8/8 6/6/6 2/2/2 4/4/4
s 32
f 7/15/7 8/16/8 4/14/4 3/13/3
s 64
f 5/5/5 7/7/7 3/3/3 1/1/1
s 0
f 10/10/10 9/9/9 1/1/1 2/2/2
f 11/11/11 10/10/10 2/2/2 6/6/6
f 12/12/12 11/11/11 6/6/6 5/5/5
f 9/9/9 12/12/12 5/5/5 1/1/1
# 10 faces

g
