# Wavefront OBJ
# Created by fragMOTION
# http://www.fragmosoft.com

mtllib goldFrame_ArmyScene.mtl
# 129 vertices
v 0.567862 -0.495557 -0.0805319
v 0.567862 -0.495557 0.0805321
v -0.567862 -0.495557 0.0805321
v -0.567862 -0.495557 -0.0805319
v 0.567862 0.495557 -0.0805321
v 0.567862 0.495557 0.0805319
v -0.567862 0.495557 0.0805319
v -0.567862 0.495557 -0.0805321
v -0.00353 -0.515938 -0.0805319
v -0.00353 -0.515938 0.0805321
v -0.003529 0.515938 -0.0805321
v -0.00353 0.515938 0.0805319
v 0.241001 -0.493262 -0.0805319
v 0.241001 -0.493262 0.0805321
v 0.241001 0.493262 -0.0805321
v 0.241001 0.493262 0.0805319
v -0.423306 -0.384025 -0.0165739
v -0.239225 0.349524 -0.0165741
v -0.003462 0.349592 -0.0165741
v -0.567204 0.207818 -0.080532
v -0.567204 0.207818 0.080532
v 0.567174 0.207818 0.080532
v 0.567175 0.207818 -0.080532
v -0.579522 -0.347955 0.0805321
v -0.579522 -0.347955 -0.0805319
v -0.239139 0.493549 0.0805319
v -0.239139 0.493549 -0.0805321
v -0.239139 -0.493549 0.0805321
v -0.239139 -0.493549 -0.0805319
v 0.423153 0.207584 -0.016574
v -0.423293 -0.347847 -0.0165739
v 0.423155 0.494507 0.0805319
v 0.423155 0.494507 -0.0805321
v -0.595037 0.00483901 0.080532
v -0.239219 -0.347719 -0.0165739
v 0.24088 -0.347716 -0.0165739
v 0.586591 -0.384191 0.0805321
v 0.586591 -0.384191 -0.0805319
v -0.423272 0.207588 -0.016574
v 0.423174 0.349561 -0.0165741
v -0.003505 -0.384191 -0.0165739
v -0.567203 -0.180335 -0.080532
v -0.567204 -0.180335 0.080532
v 0.567174 -0.180335 0.080532
v 0.567175 -0.180335 -0.080532
v 0.240871 0.349523 -0.0165741
v 0.423187 0.390568 -0.0165741
v -0.586596 -0.384191 -0.0805319
v -0.586596 -0.384191 0.0805321
v -0.42332 0.004732 -0.016574
v -0.423272 -0.180329 -0.016574
v -0.595036 0.00483899 -0.080532
v -0.423303 0.390573 -0.0165741
v 0.240953 -0.383821 -0.0165739
v -0.239171 -0.383826 -0.0165739
v -0.239179 0.390252 -0.0165741
v -0.003499 0.390841 -0.0165741
v -0.423292 0.349561 -0.0165741
v 0.595041 0.00483899 -0.080532
v 0.595041 0.00483901 0.080532
v 0.240941 0.390244 -0.0165741
v -0.585426 0.390841 -0.0805321
v -0.585427 0.390841 0.0805319
v 0.585419 0.390841 0.0805319
v 0.58542 0.390841 -0.0805321
v 0.423155 -0.494507 0.0805321
v 0.423155 -0.494507 -0.0805319
v 0.423205 0.00473 -0.016574
v 0.423153 -0.180329 -0.016574
v 0.423189 -0.384022 -0.0165739
v -0.423273 0.494642 0.0805319
v -0.423273 0.494642 -0.0805321
v -0.423273 -0.494642 0.0805321
v -0.423273 -0.494642 -0.0805319
v 0.579508 -0.347955 -0.0805319
v -0.578593 0.349592 0.0805319
v 0.578578 0.349592 -0.0805321
v 0.578577 0.349592 0.0805319
v -0.578593 0.349592 -0.0805321
v 0.579508 -0.347955 0.0805321
v -0.003467 -0.347955 -0.0165739
v 0.423176 -0.347846 -0.0165739
v 0.473821 -0.494853 -0.0805319
v 0.473821 -0.494853 0.0805321
v 0.473821 0.494853 -0.0805321
v 0.473821 0.494853 0.0805319
v 0.473976 0.390658 -0.0165741
v 0.473814 0.207661 -0.016574
v 0.473814 -0.180331 -0.016574
v 0.473986 -0.384077 -0.0165739
v 0.474061 0.004766 -0.016574
v 0.473924 -0.347882 -0.0165739
v 0.473915 0.349571 -0.0165741
v -0.47932 0.39067 -0.0165741
v -0.479225 0.207671 -0.016574
v -0.239219 -0.347719 -0.0448229
v 0.24088 -0.347716 -0.0448229
v -0.479228 0.494975 0.0805319
v -0.479228 0.494975 -0.0805321
v -0.479228 -0.494975 0.0805321
v -0.479228 -0.494975 -0.0805319
v -0.479284 0.349573 -0.0165741
v -0.003401 -0.180335 -0.044823
v 0.240871 0.349523 -0.0448231
v -0.003401 0.207818 -0.044823
v 0.423153 0.207584 -0.044823
v 0.423153 -0.180329 -0.044823
v -0.003467 -0.347955 -0.0448229
v 0.240753 -0.180322 -0.044823
v -0.239303 -0.180322 -0.044823
v 0.241041 0.00460099 -0.044823
v -0.423292 0.349561 -0.0448231
v -0.423293 -0.347847 -0.0448229
v -0.239113 0.00460399 -0.044823
v -0.42332 0.00473199 -0.044823
v -0.423272 -0.180329 -0.044823
v -0.479289 -0.347887 -0.0165739
v -0.003462 0.349592 -0.0448231
v -0.239303 0.207312 -0.044823
v -0.479326 -0.384085 -0.0165739
v -0.479225 -0.180332 -0.016574
v -0.479371 0.004771 -0.016574
v 0.240753 0.207306 -0.044823
v -0.239225 0.349524 -0.0448231
v -0.423272 0.207588 -0.044823
v 0.423174 0.349561 -0.0448231
v -0.00355 0.00483899 -0.044823
v 0.423205 0.00472999 -0.044823
v 0.423176 -0.347846 -0.0448229
# 153 texture vertices
vt 0.360287 0.142631
vt 0.335188 0.166973
vt 0.360287 0.166973
vt 0.335188 0.142631
vt 0.372975 0.857057
vt 0.352955 0.830791
vt 0.352954 0.857057
vt 0.372975 0.830792
vt 0.88413 0.667997
vt 0.866328 0.716958
vt 0.88413 0.716958
vt 0.866328 0.667997
vt 0.111805 0.865105
vt 0.035134 0.952763
vt 0.111881 0.952228
vt 0.020651 0.865262
vt 0.140992 0.692444
vt 0.118057 0.726744
vt 0.140992 0.726743
vt 0.118057 0.692445
vt 0.564834 0.142631
vt 0.495293 0.166973
vt 0.564834 0.166973
vt 0.495293 0.142631
vt 0.536135 0.857058
vt 0.480665 0.830792
vt 0.480665 0.857058
vt 0.536135 0.830792
vt 0.702043 0.864714
vt 0.500462 0.971488
vt 0.702093 0.950654
vt 0.500487 0.865262
vt 0.427207 0.830792
vt 0.427206 0.857057
vt 0.306187 0.950919
vt 0.306154 0.86472
vt 0.616416 0.142631
vt 0.616416 0.166973
vt 0.428275 0.166973
vt 0.428275 0.142631
vt 0.856308 0.174782
vt 0.856289 0.331804
vt 0.111763 0.501862
vt 0.035677 0.688408
vt 0.111884 0.688273
vt 0.012727 0.501924
vt 0.57728 0.857058
vt 0.57728 0.830792
vt 0.856316 0.865011
vt 0.85629 0.951799
vt 0.140991 0.566809
vt 0.118056 0.632993
vt 0.140992 0.632992
vt 0.118056 0.56681
vt 0.88413 0.488654
vt 0.866328 0.58313
vt 0.88413 0.58313
vt 0.866328 0.488654
vt 0.142133 0.17478
vt 0.306121 0.174898
vt 0.142151 0.688196
vt 0.142111 0.501826
vt 0.140991 0.403621
vt 0.118055 0.440101
vt 0.140991 0.440101
vt 0.118055 0.403621
vt 0.142134 0.825317
vt 0.894265 0.501857
vt 0.856289 0.688193
vt 0.894062 0.688263
vt 0.856331 0.501824
vt 0.701993 0.174901
vt 0.88413 0.324802
vt 0.866328 0.402304
vt 0.88413 0.402304
vt 0.866328 0.324802
vt 0.500518 0.825346
vt 0.306116 0.825283
vt 0.856306 0.825317
vt 0.140991 0.50632
vt 0.118056 0.50632
vt 0.11183 0.174744
vt 0.035677 0.331798
vt 0.111884 0.331802
vt 0.02552 0.174681
vt 0.88413 0.255702
vt 0.866328 0.307777
vt 0.88413 0.307777
vt 0.866328 0.255702
vt 0.142151 0.331804
vt 0.140991 0.452027
vt 0.118055 0.452027
vt 0.111834 0.825328
vt 0.026286 0.825346
vt 0.111881 0.042729
vt 0.019687 0.138417
vt 0.1118 0.138514
vt 0.035134 0.042194
vt 0.500462 0.023469
vt 0.306161 0.138752
vt 0.500482 0.138417
vt 0.306187 0.044039
vt 0.894152 0.174748
vt 0.894062 0.331802
vt 0.85629 0.043159
vt 0.702053 0.138756
vt 0.856318 0.138572
vt 0.702093 0.044303
vt 0.140992 0.678938
vt 0.118056 0.678939
vt 0.701985 0.825282
vt 0.894067 0.042841
vt 0.894204 0.138521
vt 0.588724 0.857058
vt 0.588725 0.830792
vt 0.88413 0.648717
vt 0.866328 0.648717
vt 0.894145 0.825326
vt 0.894195 0.865094
vt 0.500514 0.174681
vt 0.630763 0.142631
vt 0.630763 0.166973
vt 0.894067 0.952116
vt 0.376132 0.166973
vt 0.376132 0.142631
vt 0.385614 0.830792
vt 0.385614 0.857057
vt 0.14215 0.951923
vt 0.142125 0.865015
vt 0.142123 0.138569
vt 0.14215 0.043034
vt 0.994021 0.501924
vt 0.971043 0.688408
vt 0.981213 0.174681
vt 0.971043 0.331798
vt 0.97161 0.042194
vt 0.987053 0.138417
vt 0.609967 0.857058
vt 0.609967 0.830793
vt 0.980446 0.825346
vt 0.986087 0.865262
vt 0.657393 0.142631
vt 0.657394 0.166972
vt 0.97161 0.952763
vt 0.306052 0.331811
vt 0.306209 0.501709
vt 0.500445 0.501924
vt 0.306052 0.687943
vt 0.500568 0.688408
vt 0.702125 0.501706
vt 0.701888 0.331811
vt 0.500568 0.331798
vt 0.701888 0.687937
# 201 normals
vn 0.642953 -0.765906 1.41719e-007
vn 0.642953 -0.765906 1.41719e-007
vn -0.356239 0.424908 0.832194
vn -1.3164e-009 2.00484e-007 1
vn -0.643288 -0.765624 8.0912e-008
vn -0.643288 -0.765624 1.41667e-007
vn 0.409268 0.912414 -1.68828e-007
vn -1.06393e-009 1.42122e-007 1
vn 0.828002 0.560726 2.51072e-006
vn -0.409897 0.912132 -9.08347e-008
vn 0.371268 -0.44239 0.816364
vn -0.828094 0.560589 -2.71727e-006
vn -0.0324139 -0.999475 6.16412e-008
vn 0.00295128 0.616987 0.786968
vn 0.0301415 -0.999546 6.16544e-008
vn -0.0324136 0.999475 -6.63353e-008
vn -0.00227356 -0.63805 0.769992
vn 0.0301417 0.999546 -6.63484e-008
vn 0.0593444 -0.998238 1.23226e-007
vn -0.017157 0.640751 0.767557
vn 0.0262511 -0.999655 1.8497e-007
vn 0.0593445 0.998238 6.77707e-008
vn -0.0192066 -0.684707 0.728566
vn 0.0262511 0.999655 -1.8497e-007
vn -0.00095105 0.35311 0.935581
vn 7.56724e-011 1.36885e-007 1
vn -3.79073e-005 -1 0
vn 9.81852e-005 -1 0
vn -1.13296e-010 1.36046e-007 1
vn -0.997937 0.0642082 -2.10035e-006
vn -0.999967 -0.00814139 -3.45819e-009
vn 0.709879 -0.00967936 0.704257
vn -0.707448 -0.0144809 0.706617
vn 0.997932 0.0642856 3.93135e-006
vn 0.999967 -0.00815392 6.04103e-006
vn 0.686473 -0.0606597 0.72462
vn -0.993605 0.112909 -2.11562e-006
vn -0.988317 0.152409 -2.82009e-008
vn 0.0186309 -0.661583 0.74964
vn -0.0611567 0.998128 -3.18901e-007
vn -0.0276071 0.999619 -1.84964e-007
vn 0.0194165 0.661612 0.749595
vn -0.0611568 -0.998128 1.23217e-007
vn -0.0276072 -0.999619 1.84964e-007
vn -2.09148e-010 1.67026e-007 1
vn -1 1.31109e-005 0
vn -1.26526e-010 1.85906e-007 1
vn 1 -0.000125245 0
vn -0.000695378 1 0
vn 0.00351055 -0.682375 0.730994
vn -0.00683087 0.999977 -1.8503e-007
vn -0.00683277 0.999977 -1.8503e-007
vn 0.676953 0.00783826 0.735985
vn -0.999143 0.041394 -4.19687e-006
vn 1.273e-010 2.06102e-007 1
vn 0.000435546 1 -3.51662e-007
vn 5.75436e-011 2.06224e-007 1
vn 0.000149391 1 0
vn -0.661044 -0.00775235 0.750307
vn 0.998881 -0.0472956 8.7513e-009
vn 0.997283 0.0736648 -1.36305e-008
vn 1.78263e-010 1.68825e-007 1
vn 1 -0.000110736 1.68231e-011
vn 0.000208515 -1 5.27493e-007
vn -1.18097e-010 1.50189e-007 1
vn -1 0.000147776 0
vn -0.00970888 0.326337 0.945204
vn -1 -0.000687558 -4.18806e-006
vn 0.726175 0.019839 0.687223
vn -0.997178 -0.0750742 -6.25951e-006
vn -0.690527 0.0139792 0.723172
vn 1 -0.000687567 3.94194e-006
vn 0.997171 -0.0751627 3.95572e-006
vn -0.00011881 -1 7.03325e-007
vn 1.14932e-010 1.36639e-007 1
vn 0.00127156 -0.367622 0.929975
vn -0.998876 -0.0474034 8.77125e-009
vn 0.456501 0.154333 0.876235
vn -0.997296 0.0734903 -1.35982e-008
vn 1.57391e-010 1.63853e-007 1
vn 1 9.40065e-005 0
vn 3.16965e-011 1.59237e-007 1
vn 1 2.92824e-006 0
vn -0.998525 -0.0543001 -6.27183e-006
vn -0.00115165 -0.366468 0.93043
vn 0.000759192 0.354228 0.935159
vn 0.0111849 0.340122 0.940315
vn -0.000635058 -0.367795 0.929907
vn 0.0103502 -0.338652 0.940855
vn 8.22343e-011 1.44757e-007 1
vn -0.000201092 -1 0
vn 1 0.000140853 -3.71496e-011
vn 0.999141 0.0414465 1.96555e-006
vn -0.658734 -0.00182475 0.752374
vn 0.998521 -0.0543626 1.97961e-006
vn -0.0113709 -0.353785 0.935258
vn -0.998515 -0.0544764 -4.18776e-006
vn -0.998404 0.0564827 -4.1981e-006
vn 0.683162 0.00105274 0.730266
vn -0.442376 -0.173784 0.879831
vn 0.998506 -0.0546328 6.28165e-006
vn 0.99841 0.0563769 4.17721e-006
vn -0.00683087 -0.999977 1.8503e-007
vn 0.00325755 0.66134 0.750079
vn -0.00683277 -0.999977 1.8503e-007
vn -1 -7.71941e-005 -4.33208e-012
vn -7.4878e-011 1.62444e-007 1
vn -1 0.000141517 -4.93835e-011
vn 4.09714e-011 1.57449e-007 1
vn 0.00105977 0.352556 0.93579
vn -0.00310496 -0.683125 0.730295
vn 0.00594079 0.999982 -1.85031e-007
vn 0.00594596 0.999982 -1.23354e-007
vn -0.00284775 0.65941 0.751778
vn 0.00594096 -0.999982 1.85031e-007
vn 0.00594596 -0.999982 1.23354e-007
vn 0.99359 0.113047 1.95059e-006
vn -0.990742 -0.135755 -2.06039e-006
vn 0.712221 0.0583492 0.699526
vn 0.99072 -0.135921 6.24287e-006
vn -0.671542 0.0547175 0.738944
vn 0.994142 -0.108078 6.1362e-006
vn -0.994157 -0.107942 4.94269e-009
vn -0.690603 -0.0616486 0.720601
vn 0.988289 0.152596 -2.82355e-008
vn -0.000318429 1 -7.03325e-007
vn -1.02408e-010 2.05861e-007 1
vn 1.56597e-010 1.93355e-007 1
vn 0.000713113 1 0
vn -1 -0.000137166 0
vn -0.00704791 -0.999975 1.85029e-007
vn -0.00726685 -0.999974 1.85029e-007
vn 0.0033856 0.659506 0.751692
vn -0.00704791 0.999975 -1.85029e-007
vn -0.195818 -0.462909 0.864506
vn -0.00726685 0.999974 -1.85029e-007
vn -0.354591 -0.34827 0.86774
vn -0.371184 -0.0177533 0.92839
vn -0.382113 -0.00946431 0.924067
vn -0.241354 0.265533 0.933402
vn -0.351321 0.0167615 0.936105
vn -0.35768 -0.0237272 0.933543
vn -0.373993 0.0100946 0.927377
vn 0.251834 -0.277106 0.92725
vn 0.395875 0.0107482 0.918242
vn 1.39229e-011 1.55742e-007 1
vn -0.000129895 1 0
vn -1.64592e-011 1.55712e-007 1
vn -0.000414373 1 -3.51662e-007
vn -0.00323803 -0.681668 0.731654
vn 0.00615613 0.999981 -6.16769e-008
vn 0.00636119 0.99998 -6.16767e-008
vn 0.205324 0.442607 0.872892
vn 0.00615601 -0.999981 6.16769e-008
vn 0.00636101 -0.99998 6.16767e-008
vn 0.371865 0.0208414 0.928053
vn -5.20231e-011 1.58328e-007 1
vn -7.59931e-011 1.57255e-007 1
vn 4.48458e-005 -1 7.03325e-007
vn 1.68793e-011 1.61374e-007 1
vn -1.7476e-010 1.59959e-007 1
vn -1 -0.000121555 4.50514e-011
vn -3.3959e-011 1.5929e-007 1
vn -1 2.17542e-006 0
vn 4.11279e-012 1.55641e-007 1
vn 0.00034128 1 -7.03325e-007
vn 4.38697e-011 1.58416e-007 1
vn 4.55527e-011 1.58415e-007 1
vn 7.32349e-011 1.63224e-007 1
vn 1.339e-010 1.57304e-007 1
vn -0.000201092 -1 0
vn 1 0.000140853 0
vn -1.08247e-010 1.55667e-007 1
vn 1 -0.000125245 0
vn -0.000695378 1 0
vn 2.63833e-011 1.63222e-007 1
vn 7.35672e-011 1.62492e-007 1
vn 1 -7.12623e-005 4.15895e-011
vn -4.01028e-011 1.57496e-007 1
vn 1 0.000131102 0
vn 0.385204 -0.00940724 0.922783
vn 1.09842e-010 1.57494e-007 1
vn -9.21332e-005 -1 3.51662e-007
vn -5.67473e-011 1.61293e-007 1
vn 0.364942 0.329545 0.870757
vn 0.383561 0.0200644 0.923297
vn 0.362746 -0.0157402 0.931755
vn 1.88803e-011 1.61345e-007 1
vn -1.17e-010 1.57334e-007 1
vn 0.000125278 -1 0
vn 1.99727e-010 1.62704e-007 1
vn 1 1.50585e-005 1.68231e-011
vn -3.28398e-011 1.57432e-007 1
vn 0.000208596 -1 0
vn -1 0.000147776 0
vn -6.18111e-011 1.63133e-007 1
vn -1.61024e-010 1.63908e-007 1
vn -1 0.000101832 -4.33208e-012
vn 5.85338e-011 1.55725e-007 1
vn 0.000713113 1 0
vn -1 -0.000137166 0
usemtl Material__fabulous_red_gold_frame_png
g Cube
s 1
f 101/1/155 100/3/154 3/2/5
f 3/2/5 4/4/6 101/1/155
f 99/5/152 8/7/12 7/6/10
f 7/6/10 98/8/151 99/5/152
f 65/9/102 5/11/7 6/10/9
f 6/10/9 64/12/101 65/9/102
f 94/13/144 98/15/150 7/14/11
f 7/14/11 63/16/99 94/13/144
f 63/17/98 7/19/10 8/18/12
f 8/18/12 62/20/97 63/17/98
f 13/21/19 14/23/21 10/22/15
f 10/22/15 9/24/13 13/21/19
f 15/25/22 11/27/16 12/26/18
f 12/26/18 16/28/24 15/25/22
f 61/29/96 16/31/23 12/30/17
f 12/30/17 57/32/89 61/29/96
f 11/27/16 27/34/41 26/33/40
f 26/33/40 12/26/18 11/27/16
f 57/32/89 12/30/17 26/35/39
f 26/35/39 56/36/88 57/32/89
f 67/37/105 66/38/103 14/23/21
f 14/23/21 13/21/19 67/37/105
f 9/24/13 10/22/15 28/39/43
f 28/39/43 29/40/44 9/24/13
f 82/41/130 69/42/108 107/42/164
f 107/42/164 129/41/201 82/41/130
f 122/43/187 95/45/145 21/44/32
f 21/44/32 34/46/53 122/43/187
f 33/47/52 15/25/22 16/28/24
f 16/28/24 32/48/51 33/47/52
f 47/49/76 32/50/50 16/31/23
f 16/31/23 61/29/96 47/49/76
f 34/51/54 21/53/31 20/52/30
f 20/52/30 52/54/84 34/51/54
f 59/55/93 23/57/35 22/56/34
f 22/56/34 60/58/95 59/55/93
f 31/59/49 35/60/56 96/60/147
f 96/60/147 113/59/175 31/59/49
f 39/61/63 50/62/81 115/62/178
f 115/62/178 125/61/192 39/61/63
f 3/63/5 49/65/79 48/64/77
f 48/64/77 4/66/6 3/63/5
f 58/67/92 39/61/63 125/61/192
f 125/61/192 112/67/172 58/67/92
f 91/68/141 88/70/138 30/69/45
f 30/69/45 68/71/107 91/68/141
f 36/72/58 82/41/129 129/41/200
f 129/41/200 97/72/149 36/72/58
f 75/73/117 45/75/73 44/74/72
f 44/74/72 80/76/125 75/73/117
f 19/77/28 18/78/27 124/78/190
f 124/78/190 118/77/183 19/77/28
f 30/69/46 40/79/66 126/79/195
f 126/79/195 106/69/162 30/69/46
f 43/80/70 34/51/54 52/54/84
f 52/54/84 42/81/68 43/80/70
f 117/82/181 121/84/186 43/83/69
f 43/83/69 24/85/36 117/82/181
f 1/86/1 38/88/61 37/87/60
f 37/87/60 2/89/2 1/86/1
f 50/62/81 51/90/83 116/90/180
f 116/90/180 115/62/178 50/62/81
f 24/91/37 43/80/70 42/81/68
f 42/81/68 25/92/38 24/91/37
f 68/71/106 30/69/46 106/69/162
f 106/69/162 128/71/198 68/71/106
f 45/75/73 59/55/93 60/58/95
f 60/58/95 44/74/72 45/75/73
f 102/93/156 94/13/144 63/16/99
f 63/16/99 76/94/119 102/93/156
f 19/77/29 57/32/89 56/36/88
f 56/36/88 18/78/26 19/77/29
f 121/84/186 122/43/187 34/46/53
f 34/46/53 43/83/69 121/84/186
f 100/95/153 120/97/185 49/96/78
f 49/96/78 3/98/4 100/95/153
f 10/99/14 41/101/67 55/100/87
f 55/100/87 28/102/42 10/99/14
f 92/103/142 89/104/139 69/42/109
f 69/42/109 82/41/128 92/103/142
f 66/105/104 70/107/110 54/106/86
f 54/106/86 14/108/20 66/105/104
f 14/108/20 54/106/86 41/101/67
f 41/101/67 10/99/14 14/108/20
f 89/104/139 91/68/141 68/71/107
f 68/71/107 69/42/109 89/104/139
f 76/109/118 63/17/98 62/20/97
f 62/20/97 79/110/123 76/109/118
f 46/111/75 61/29/96 57/32/89
f 57/32/89 19/77/29 46/111/75
f 84/112/133 90/113/140 70/107/110
f 70/107/110 66/105/104 84/112/133
f 40/79/65 47/49/76 61/29/96
f 61/29/96 46/111/75 40/79/65
f 85/114/134 33/47/52 32/48/51
f 32/48/51 86/115/136 85/114/134
f 77/116/120 65/9/102 64/12/101
f 64/12/101 78/117/122 77/116/120
f 95/45/145 102/93/156 76/94/119
f 76/94/119 21/44/32 95/45/145
f 93/118/143 87/119/137 47/49/76
f 47/49/76 40/79/65 93/118/143
f 35/60/56 81/120/126 108/120/166
f 108/120/166 96/60/147 35/60/56
f 83/121/131 84/122/132 66/38/103
f 66/38/103 67/37/105 83/121/131
f 87/119/137 86/123/135 32/50/50
f 32/50/50 47/49/76 87/119/137
f 54/106/86 36/72/57 81/120/127
f 81/120/127 41/101/67 54/106/86
f 18/78/27 58/67/91 112/67/171
f 112/67/171 124/78/190 18/78/27
f 41/101/67 81/120/127 35/60/55
f 35/60/55 55/100/87 41/101/67
f 69/42/108 68/71/106 128/71/198
f 128/71/198 107/42/164 69/42/108
f 38/88/61 75/73/117 80/76/125
f 80/76/125 37/87/60 38/88/61
f 21/53/31 76/109/118 79/110/123
f 79/110/123 20/52/30 21/53/31
f 29/40/44 28/39/43 73/124/115
f 73/124/115 74/125/116 29/40/44
f 23/57/35 77/116/120 78/117/122
f 78/117/122 22/56/34 23/57/35
f 88/70/138 93/118/143 40/79/65
f 40/79/65 30/69/45 88/70/138
f 46/111/74 19/77/28 118/77/183
f 118/77/183 104/111/159 46/111/74
f 81/120/126 36/72/58 97/72/149
f 97/72/149 108/120/166 81/120/126
f 49/65/79 24/91/37 25/92/38
f 25/92/38 48/64/77 49/65/79
f 27/34/41 72/127/113 71/126/112
f 71/126/112 26/33/40 27/34/41
f 70/107/110 82/41/128 36/72/57
f 36/72/57 54/106/86 70/107/110
f 90/113/140 92/103/142 82/41/128
f 82/41/128 70/107/110 90/113/140
f 120/97/185 117/82/181 24/85/36
f 24/85/36 49/96/78 120/97/185
f 56/36/88 26/35/39 71/128/111
f 71/128/111 53/129/85 56/36/88
f 51/90/83 31/59/48 113/59/174
f 113/59/174 116/90/180 51/90/83
f 55/100/87 35/60/55 31/59/47
f 31/59/47 17/130/25 55/100/87
f 40/79/64 46/111/74 104/111/159
f 104/111/159 126/79/194 40/79/64
f 18/78/26 56/36/88 53/129/85
f 53/129/85 58/67/90 18/78/26
f 28/102/42 55/100/87 17/130/25
f 17/130/25 73/131/114 28/102/42
f 60/132/94 22/133/33 88/70/138
f 88/70/138 91/68/141 60/132/94
f 80/134/124 44/135/71 89/104/139
f 89/104/139 92/103/142 80/134/124
f 44/135/71 60/132/94 91/68/141
f 91/68/141 89/104/139 44/135/71
f 2/136/3 37/137/59 90/113/140
f 90/113/140 84/112/133 2/136/3
f 5/138/7 85/114/134 86/115/136
f 86/115/136 6/139/9 5/138/7
f 78/140/121 64/141/100 87/119/137
f 87/119/137 93/118/143 78/140/121
f 1/142/1 2/143/2 84/122/132
f 84/122/132 83/121/131 1/142/1
f 64/141/100 6/144/8 86/123/135
f 86/123/135 87/119/137 64/141/100
f 22/133/33 78/140/121 93/118/143
f 93/118/143 88/70/138 22/133/33
f 37/137/59 80/134/124 92/103/142
f 92/103/142 90/113/140 37/137/59
f 72/127/113 99/5/152 98/8/151
f 98/8/151 71/126/112 72/127/113
f 110/145/168 114/146/176 115/62/177
f 115/62/177 116/90/179 110/145/168
f 127/147/196 105/149/160 119/148/184
f 119/148/184 114/146/176 127/147/196
f 74/125/116 73/124/115 100/3/154
f 100/3/154 101/1/155 74/125/116
f 51/90/82 50/62/80 122/43/187
f 122/43/187 121/84/186 51/90/82
f 17/130/25 31/59/47 117/82/181
f 117/82/181 120/97/185 17/130/25
f 31/59/47 51/90/82 121/84/186
f 121/84/186 117/82/181 31/59/47
f 58/67/90 53/129/85 94/13/144
f 94/13/144 102/93/156 58/67/90
f 39/61/62 58/67/90 102/93/156
f 102/93/156 95/45/145 39/61/62
f 50/62/80 39/61/62 95/45/145
f 95/45/145 122/43/187 50/62/80
f 53/129/85 71/128/111 98/15/150
f 98/15/150 94/13/144 53/129/85
f 119/148/184 124/78/189 112/67/170
f 112/67/170 125/61/191 119/148/184
f 105/149/160 118/77/182 124/78/189
f 124/78/189 119/148/184 105/149/160
f 73/131/114 17/130/25 120/97/185
f 120/97/185 100/95/153 73/131/114
f 107/42/163 128/71/197 111/150/169
f 111/150/169 109/151/167 107/42/163
f 103/152/157 127/147/196 114/146/176
f 114/146/176 110/145/168 103/152/157
f 114/146/176 119/148/184 125/61/191
f 125/61/191 115/62/177 114/146/176
f 109/151/167 111/150/169 127/147/196
f 127/147/196 103/152/157 109/151/167
f 97/72/148 109/151/167 103/152/157
f 103/152/157 108/120/165 97/72/148
f 123/153/188 104/111/158 118/77/182
f 118/77/182 105/149/160 123/153/188
f 111/150/169 123/153/188 105/149/160
f 105/149/160 127/147/196 111/150/169
f 108/120/165 103/152/157 110/145/168
f 110/145/168 96/60/146 108/120/165
f 128/71/197 106/69/161 123/153/188
f 123/153/188 111/150/169 128/71/197
f 96/60/146 110/145/168 116/90/179
f 116/90/179 113/59/173 96/60/146
f 129/41/199 107/42/163 109/151/167
f 109/151/167 97/72/148 129/41/199
f 106/69/161 126/79/193 104/111/158
f 104/111/158 123/153/188 106/69/161
