# Wavefront OBJ
# Created by fragMOTION
# http://www.fragmosoft.com

mtllib GoldFrame_HitlerImage.mtl
# 60 vertices
v 0.5369 -0.658278 -0.101471
v 0.5369 -0.658278 0.101471
v -0.5369 -0.658278 0.101471
v -0.536899 -0.658278 -0.101471
v 0.5369 0.658278 -0.101471
v 0.536899 0.658278 0.101471
v -0.5369 0.658278 0.101471
v -0.5369 0.658278 -0.101471
v 0.5369 0.601804 -0.101471
v 0.536899 0.601804 0.101471
v -0.5369 0.601804 0.101471
v -0.5369 0.601804 -0.101471
v -0.477048 -0.658278 -0.101471
v -0.477049 -0.658278 0.101471
v -0.477049 0.658278 -0.101471
v -0.477049 0.658278 0.101471
v 0.5369 -0.399856 -0.101471
v 0.5369 -0.399856 0.101471
v -0.5369 -0.399856 0.101471
v -0.5369 -0.399856 -0.101471
v -0.5369 0.403729 -0.101471
v -0.5369 0.403729 0.101471
v 0.536899 0.403729 0.101471
v 0.5369 0.403729 -0.101471
v -0.536899 -0.594557 -0.101471
v -0.5369 -0.594557 0.101471
v 0.5369 -0.594557 0.101471
v 0.5369 -0.594557 -0.101471
v 0.473528 0.403729 0.101471
v 0.473528 0.601804 0.101471
v -0.477049 0.403729 0.101471
v -0.477049 0.601804 0.101471
v -0.477049 -0.594557 0.101471
v -0.477049 -0.399856 0.101471
v 0.283413 -0.594557 0.101471
v 0.283413 -0.399856 -0.0238819
v 0.283412 0.601804 0.101471
v 0.283412 0.403729 -0.0238821
v -0.293975 0.601804 0.101471
v -0.293975 0.403729 -0.0238821
v -0.293975 0.658278 0.101471
v -0.293974 0.658278 -0.101471
v -0.293975 -0.658278 0.101471
v -0.293974 -0.658278 -0.101471
v -0.293975 -0.594557 0.101471
v -0.293975 -0.399856 -0.0238819
v 0.473528 -0.658278 -0.101471
v 0.473528 -0.658278 0.101471
v 0.473528 0.658278 -0.101471
v 0.473528 0.658278 0.101471
v 0.473528 -0.399856 0.101471
v 0.473528 -0.594557 0.101471
v 0.283413 0.658278 -0.101471
v 0.283413 -0.658278 0.101471
v 0.283412 0.658278 0.101471
v 0.283413 -0.658278 -0.101471
v 0.283413 -0.399856 -0.0680209
v 0.283412 0.403729 -0.0680211
v -0.293975 0.403729 -0.0680211
v -0.293975 -0.399856 -0.0680209
# 36 texture vertices
vt 0.097794 0.03043
vt 0.047692 0.03043
vt 0.097794 0.96957
vt 0.047692 0.96957
vt 0.946581 0.929285
vt 0.94658 0.96957
vt 0.097794 0.929285
vt 0.047692 0.929285
vt 0.946581 0.787993
vt 0.097794 0.787993
vt 0.047692 0.787993
vt 0.94658 0.075884
vt 0.94658 0.21477
vt 0.047692 0.075884
vt 0.047692 0.21477
vt 0.097794 0.21477
vt 0.097794 0.075884
vt 0.251047 0.787993
vt 0.251047 0.03043
vt 0.94658 0.03043
vt 0.251047 0.96957
vt 0.251047 0.929285
vt 0.251047 0.21477
vt 0.251047 0.075884
vt 0.893531 0.21477
vt 0.893531 0.075884
vt 0.734384 0.03043
vt 0.734384 0.075884
vt 0.893531 0.929285
vt 0.734384 0.96957
vt 0.893531 0.96957
vt 0.734384 0.929285
vt 0.893531 0.03043
vt 0.734384 0.21477
vt 0.734384 0.787993
vt 0.893531 0.787993
# 108 normals
vn 0 -1 0
vn 1 0 0
vn 0 -1 0
vn 0 1.16925e-007 1
vn 1 0 0
vn -1 -5.83801e-013 -4.99295e-006
vn 0 1.16925e-007 1
vn 0 -1 0
vn -1 -5.83801e-013 -4.99295e-006
vn 0 -1 0
vn 0 1 0
vn 1 6.58716e-013 4.99295e-006
vn 0 1 0
vn 0 1.31929e-007 1
vn 1 6.58717e-013 4.99295e-006
vn -1 0 0
vn 0 1.31929e-007 1
vn 0 1 0
vn -1 0 0
vn 0 1 0
vn 1 6.89557e-013 4.99295e-006
vn 0 1.38106e-007 1
vn 1 7.20398e-013 4.99295e-006
vn -1 0 0
vn 0 1.44283e-007 1
vn -1 0 0
vn 0 -1 0
vn 0 1.16925e-007 1
vn 0 -1 0
vn 0 1 0
vn 0 1.31929e-007 1
vn 0 1 0
vn 1 4.20316e-007 1.66432e-006
vn 0 1.62282e-007 1
vn 1 4.20316e-007 -1.23448e-013
vn 0 1.57675e-007 1
vn -1 0 0
vn -1 -1.73476e-006 -1.66432e-006
vn -1 0 0
vn -1 0 0
vn 0 1.61413e-007 1
vn 0 1.55937e-007 1
vn 1 4.20317e-007 3.32863e-006
vn 1 7.78583e-013 4.99295e-006
vn -1 -1.73476e-006 -4.99295e-006
vn -1 -1.73476e-006 -3.32863e-006
vn 0 1.28972e-007 1
vn 0 1.4102e-007 1
vn 1 0 0
vn 1 0 0
vn -0.229468 1.56153e-007 0.973316
vn -0.081868 -0.0795329 0.993465
vn 0.295707 1.50661e-007 0.955279
vn 0.0987145 -0.0934374 0.990719
vn 0.0841764 0.0806553 0.993181
vn 0.236114 1.569e-007 0.971725
vn 0 0.282127 0.959377
vn -0.880473 -8.11543e-007 0.474096
vn -0.66083 0.230723 0.714192
vn -0.268752 0.508406 0.818105
vn 0 0.778039 0.628216
vn 0 -0.222336 0.97497
vn 0 -0.817951 0.575289
vn -0.726947 -4.10483e-007 0.686693
vn -0.448161 -0.271171 0.851832
vn -0.257542 -0.562106 0.785945
vn 0 -0.278387 0.960469
vn 0 -0.774553 0.632509
vn 0.884581 7.29229e-008 0.466387
vn 0.27636 -0.506167 0.816958
vn 0.66583 -0.227521 0.710567
vn 0 1.31929e-007 1
vn 0 1 0
vn 0 1 0
vn 0 -1 0
vn 0 1.16925e-007 1
vn 0 -1 0
vn 0 0.225312 0.974287
vn 0.73647 1.08734e-007 0.67647
vn 0.264751 0.566086 0.780675
vn 0.45632 0.274987 0.846259
vn 0 0.820758 0.571276
vn 0 -1 0
vn 0 1.16925e-007 1
vn 0 -1 0
vn 0 1 0
vn 0 1 0
vn 0 1.31929e-007 1
vn -0.287352 3.51331e-008 0.957825
vn -0.096102 0.0945075 0.990875
vn 0 1 0
vn 0 1.16925e-007 1
vn 0 -1 0
vn 0 1 0
vn 0 1.31929e-007 1
vn 0 -1 0
vn -1 -1.22386e-006 0
vn 0 1.6689e-007 1
vn 0 1 0
vn 0 -1 0
vn -1 -1.22386e-006 0
vn 0 1.6689e-007 1
vn 0 -1 0
vn 1 0 0
vn 0 1.6689e-007 1
vn 1 0 0
vn 0 1.6689e-007 1
vn 0 1 0
usemtl Material__1goldframePS_jpg
g Cube
s 1
f 13/1/27 14/1/29 3/2/8
f 3/2/8 4/2/10 13/1/27
f 15/3/30 8/4/20 7/4/18
f 7/4/18 16/3/32 15/3/30
f 9/5/21 5/6/12 6/6/15
f 6/6/15 10/5/23 9/5/21
f 32/7/54 16/3/31 7/4/17
f 7/4/17 11/8/25 32/7/54
f 11/8/24 7/4/16 8/4/19
f 8/4/19 12/8/26 11/8/24
f 24/9/44 9/5/21 10/5/23
f 10/5/23 23/9/43 24/9/44
f 31/10/53 32/7/54 11/8/25
f 11/8/25 22/11/41 31/10/53
f 22/11/40 11/8/24 12/8/26
f 12/8/26 21/11/39 22/11/40
f 28/12/50 17/13/33 18/13/35
f 18/13/35 27/12/49 28/12/50
f 26/14/46 19/15/37 20/15/38
f 20/15/38 25/14/45 26/14/46
f 17/13/33 24/9/44 23/9/43
f 23/9/43 18/13/35 17/13/33
f 34/16/56 31/10/53 22/11/41
f 22/11/41 19/15/36 34/16/56
f 19/15/37 22/11/40 21/11/39
f 21/11/39 20/15/38 19/15/37
f 33/17/55 34/16/56 19/15/36
f 19/15/36 26/14/47 33/17/55
f 14/1/28 33/17/55 26/14/47
f 26/14/47 3/2/7 14/1/28
f 3/2/6 26/14/46 25/14/45
f 25/14/45 4/2/9 3/2/6
f 40/18/71 32/7/54 31/10/53
f 44/19/77 43/19/75 14/1/29
f 14/1/29 13/1/27 44/19/77
f 1/20/2 28/12/50 27/12/49
f 27/12/49 2/20/5 1/20/2
f 42/21/74 15/3/30 16/3/32
f 16/3/32 41/21/73 42/21/74
f 39/22/67 41/21/72 16/3/31
f 16/3/31 32/7/54 39/22/67
f 46/23/81 40/18/71 31/10/53
f 31/10/53 34/16/56 46/23/81
f 39/22/67 32/7/54 40/18/70
f 43/19/76 45/24/78 33/17/55
f 33/17/55 14/1/28 43/19/76
f 27/12/48 18/13/34 51/25/89
f 51/25/89 52/26/90 27/12/48
f 54/27/92 35/28/57 45/24/78
f 45/24/78 43/19/76 54/27/92
f 30/29/52 50/31/88 55/30/95
f 55/30/95 37/32/62 30/29/52
f 56/27/96 54/27/93 43/19/75
f 43/19/75 44/19/77 56/27/96
f 2/20/4 27/12/48 52/26/90
f 52/26/90 48/33/84 2/20/4
f 53/30/91 42/21/74 41/21/73
f 41/21/73 55/30/94 53/30/91
f 46/23/82 36/34/61 57/34/99
f 57/34/99 60/23/108 46/23/82
f 35/28/57 36/34/60 46/23/80
f 46/23/80 45/24/78 35/28/57
f 37/32/62 55/30/95 41/21/72
f 41/21/72 39/22/67 37/32/62
f 10/5/22 6/6/14 50/31/88
f 50/31/88 30/29/52 10/5/22
f 5/6/11 49/31/86 50/31/87
f 50/31/87 6/6/13 5/6/11
f 38/35/66 37/32/62 39/22/67
f 39/22/67 40/18/70 38/35/66
f 1/20/1 2/20/3 48/33/85
f 48/33/85 47/33/83 1/20/1
f 23/9/42 10/5/22 30/29/52
f 30/29/52 29/36/51 23/9/42
f 18/13/34 23/9/42 29/36/51
f 29/36/51 51/25/89 18/13/34
f 37/32/62 38/35/66 30/29/52
f 47/33/83 48/33/85 54/27/93
f 54/27/93 56/27/96 47/33/83
f 48/33/84 52/26/90 35/28/57
f 35/28/57 54/27/92 48/33/84
f 30/29/52 38/35/65 29/36/51
f 49/31/86 53/30/91 55/30/94
f 55/30/94 50/31/87 49/31/86
f 51/25/89 29/36/51 38/35/65
f 38/35/65 36/34/59 51/25/89
f 46/23/81 34/16/56 33/17/55
f 46/23/80 33/17/55 45/24/78
f 36/34/60 35/28/57 52/26/90
f 36/34/59 52/26/90 51/25/89
f 57/34/98 58/35/102 59/18/105
f 59/18/105 60/23/107 57/34/98
f 40/18/69 46/23/79 60/23/106
f 60/23/106 59/18/104 40/18/69
f 36/34/58 38/35/64 58/35/101
f 58/35/101 57/34/97 36/34/58
f 38/35/63 40/18/68 59/18/103
f 59/18/103 58/35/100 38/35/63
