# Wavefront OBJ
# Created by fragMOTION
# http://www.fragmosoft.com

mtllib GoldFrame_PlaneImage.mtl
# 76 vertices
v 0.643642 0.52251 -0.0193861
v 0.643642 0.52251 0.0527379
v -0.64436 -0.515448 -0.0193859
v 0.643642 0.327213 -0.0193861
v -0.449358 0.52251 0.0527379
v -0.449358 0.52251 -0.0193861
v -0.64436 -0.515448 0.0527381
v 0.643642 -0.515448 -0.0193859
v 0.448113 -0.515448 0.0527381
v 0.643642 -0.515448 0.0527381
v -0.449358 0.327213 0.000215947
v 0.448113 -0.515448 -0.0193859
v -0.449358 -0.515448 -0.0193859
v 0.448113 -0.316621 -0.0189629
v 0.643642 -0.316621 0.0527381
v -0.449358 -0.316621 0.000216052
v -0.64436 0.327213 0.0527379
v -0.449358 -0.316621 -0.0189629
v -0.449358 0.327213 -0.0189631
v 0.448113 0.327213 -0.0189631
v 0.643642 -0.316621 -0.0193859
v 0.643642 0.327213 0.0527379
v 0.448113 -0.316621 0.000216052
v 0.448113 0.327213 0.000215947
v -0.449358 -0.515448 0.0527381
v 0.448113 0.52251 0.0527379
v -0.64436 0.43358 0.0527379
v 0.643642 0.43358 0.0527379
v 0.448113 0.43358 0.0193859
v 0.643642 0.43358 -0.0193861
v -0.449358 0.43358 0.0193859
v -0.561041 0.327213 0.0193859
v -0.449358 -0.429983 0.0193861
v 0.448113 -0.429983 0.0193861
v 0.643642 -0.429983 0.0527381
v -0.561041 -0.515448 -0.0193859
v -0.561041 -0.316621 0.0193861
v -0.561041 -0.515448 0.0527381
v -0.561041 0.43358 0.0193859
v 0.556353 -0.515448 -0.0193859
v 0.556352 -0.429983 0.0193861
v 0.556352 -0.316621 0.0193861
v -0.64436 -0.316621 -0.0193859
v -0.64436 0.52251 -0.0193861
v -0.64436 0.327213 -0.0193861
v -0.64436 0.43358 -0.0193861
v -0.64436 -0.429983 0.0527381
v -0.64436 -0.316621 0.0527381
v -0.64436 -0.429983 -0.0193859
v -0.64436 0.52251 0.0527379
v 0.556353 0.52251 0.0527379
v -0.561041 -0.429983 0.0193861
v 0.643642 -0.429983 -0.0193859
v 0.448113 0.52251 -0.0193861
v -0.561041 0.52251 -0.0193861
v -0.561041 0.52251 0.0527379
v 0.556352 0.43358 0.0193859
v 0.556352 0.327213 0.0193859
v 0.556353 -0.515448 0.0527381
v 0.556353 0.52251 -0.0193861
v -0.449358 0.327213 0.00931295
v -0.449358 -0.316621 0.00931305
v 0.448113 -0.316621 0.00931305
v 0.448113 0.327213 0.00931295
v 0.448113 0.43358 0.0377739
v -0.449358 0.43358 0.0377739
v -0.561041 0.327213 0.0377739
v -0.449358 -0.429983 0.0377741
v 0.448113 -0.429983 0.0377741
v -0.561041 -0.316621 0.0377741
v -0.561041 0.43358 0.0377739
v -0.561041 -0.429983 0.0377741
v 0.556352 0.43358 0.0377739
v 0.556352 -0.429983 0.0377741
v 0.556352 0.327213 0.0377739
v 0.556352 -0.316621 0.0377741
# 36 texture vertices
vt 0.179594 0.048752
vt 0.819819 0.048752
vt 0.099924 0.048752
vt 0.819819 0.223052
vt 0.819819 0.787462
vt 0.959302 0.787462
vt 0.959302 0.223052
vt 0.959302 0.880707
vt 0.179594 0.223052
vt 0.179594 0.787462
vt 0.179594 0.123674
vt 0.819819 0.123674
vt 0.819819 0.958666
vt 0.179594 0.880707
vt 0.179594 0.958666
vt 0.819819 0.880707
vt 0.099924 0.958666
vt 0.099924 0.880707
vt 0.099924 0.787462
vt 0.897033 0.123674
vt 0.897033 0.223052
vt 0.959302 0.123674
vt 0.959302 0.048752
vt 0.959302 0.958666
vt 0.897033 0.958666
vt 0.040487 0.958666
vt 0.040487 0.880707
vt 0.897033 0.048752
vt 0.099924 0.223052
vt 0.040487 0.123674
vt 0.040487 0.223052
vt 0.099924 0.123674
vt 0.897033 0.787462
vt 0.897033 0.880707
vt 0.040487 0.048752
vt 0.040487 0.787462
# 162 normals
vn 1 0 0
vn 0 1 0
vn -0.184329 -0.181352 0.965989
vn 1 0 0
vn 0 1 0
vn 0 -1 0
vn -1 0 0
vn 1 0 0
vn 0 -0.351153 0.936318
vn 0 1 0
vn 0 1 0
vn 0 -1 0
vn -1 0 0
vn 0.192427 0.188241 0.963087
vn 0 -1 0
vn 1 0 0
vn 0 0.363541 0.931578
vn 0 -1 0
vn 0 1.74354e-007 1
vn 0 -1 0
vn 1 0 0
vn 0 1.62915e-007 1
vn 1 0 0
vn 0 -1 0
vn 0 -1 0
vn 0 -1 0
vn 0 1 0
vn -1 0 0
vn -0.356917 1.52772e-007 0.934136
vn 1 0 0
vn 0 1.62915e-007 1
vn 1 0 0
vn 0 1 0
vn -1 0 0
vn 0.371625 1.4768e-007 0.928383
vn 1 0 0
vn 0 1 0
vn 1 0 0
vn 0 -1 0
vn 0 -1 0
vn -1 0 0
vn 1 0 0
vn -0.356917 1.68128e-007 0.934136
vn 1 0 0
vn 0 1.62915e-007 1
vn 0 1 0
vn -1 0 0
vn 0 1.62915e-007 1
vn -1 0 0
vn 0 -1 0
vn 0 0.363541 0.931578
vn 0 -1 0
vn 0 -0.351153 0.936318
vn 0 1 0
vn 0.247858 -0.112789 0.962208
vn -1 0 0
vn -0.356917 1.72134e-007 0.934136
vn 1 0 0
vn 0 1 0
vn 0 -0.351153 0.936318
vn 1 0 0
vn 0 1 0
vn 0 -0.351153 0.936318
vn 0.371625 1.45416e-007 0.928383
vn -1 0 0
vn 0 -1 0
vn 0 0.363541 0.931578
vn 0 0.363541 0.931578
vn 0 -1 0
vn -0.237403 0.117455 0.964284
vn 1 0 0
vn 0 -1 0
vn 0.371625 1.53621e-007 0.928383
vn -1 0 0
vn 0 -1 0
vn 0 0.363541 0.931578
vn 0.225828 -0.212808 0.950639
vn -1 0 0
vn 0 1 0
vn 0 -1 0
vn -0.216481 0.220691 0.951016
vn 0 -1 0
vn 1 0 0
vn 1 0 0
vn -0.356917 1.53858e-007 0.934136
vn -1 0 0
vn 0 1 0
vn -1 0 0
vn -1 0 0
vn -1 0 0
vn -1 0 0
vn 0.371625 1.55651e-007 0.928383
vn -1 0 0
vn 0.371625 1.5291e-007 0.928383
vn -1 0 0
vn 0 1.67561e-007 1
vn 0 1 0
vn -1 0 0
vn 0 -0.351153 0.936318
vn 0 1 0
vn 0 -1 0
vn 0.192427 0.188241 0.963087
vn -1 0 0
vn 1 0 0
vn 0 1 0
vn 0 1 0
vn 0.120386 -0.233242 0.964938
vn 0 1 0
vn -0.184329 -0.181352 0.965989
vn 0 1 0
vn 1 0 0
vn 1 0 0
vn -0.356917 1.72208e-007 0.934136
vn -0.115 0.242129 0.963405
vn 0 -1 0
vn 0 1 0
vn 0.687463 -0.0631352 0.72347
vn 0.489457 -0.137536 0.861113
vn 0.470689 -0.304491 0.828093
vn 0.141629 -0.341632 0.929101
vn 0.0707358 -0.523164 0.849292
vn 0.6105 1.29226e-007 0.792016
vn 0 0.788513 0.615018
vn 0.106597 0.536776 0.836964
vn 0.35704 0.116396 0.926809
vn -0.0734431 0.512056 0.855806
vn -0.690878 0.0591552 0.720547
vn -0.474449 0.29664 0.828796
vn -0.146218 0.333361 0.931392
vn -0.492644 0.129245 0.86058
vn -0.615003 1.32916e-007 0.788524
vn -0.109581 -0.542293 0.833013
vn -0.360715 -0.123608 0.924449
vn 0 -0.793247 0.608901
vn 0 1 0
vn 0 -0.25848 0.966017
vn 0 1 0
vn 0.08081 -0.172231 0.981736
vn -1 0 0
vn 0.164292 -0.0848486 0.982756
vn 0 0.243506 0.969899
vn 0 -1 0
vn -0.0835069 0.162018 0.983248
vn 0 -1 0
vn -1 0 0
vn 0.246945 1.57736e-007 0.96903
vn 0 1.75115e-007 1
vn -1 0 0
vn 0 1 0
vn 0.125372 0.123626 0.984377
vn 0 -1 0
vn -1 0 0
vn -0.129293 -0.131418 0.982859
vn 0 1 0
vn 1 0 0
vn 0 1.6431e-007 1
vn 0 -1 0
vn 1 0 0
vn 1 0 0
vn -0.254301 1.60909e-007 0.967125
vn 1 0 0
vn -0.16944 0.0797332 0.98231
usemtl None__Frames_jpg
g Cube
s 1
f 25/1/52 13/1/26 12/2/25
f 12/2/25 9/2/18 25/1/52
f 38/3/75 36/3/72 13/1/26
f 13/1/26 25/1/52 38/3/75
f 14/4/28 23/4/47 24/5/49
f 24/5/49 20/5/41 14/4/28
f 4/6/8 22/6/44 15/7/30
f 15/7/30 21/7/42 4/6/8
f 30/8/61 28/8/58 22/6/44
f 22/6/44 4/6/8 30/8/61
f 18/9/37 16/9/33 23/4/46
f 23/4/46 14/4/27 18/9/37
f 11/10/24 24/5/50 64/5/134
f 64/5/134 61/10/121 11/10/24
f 33/11/66 34/12/69 69/12/144
f 69/12/144 68/11/142 33/11/66
f 20/5/40 24/5/50 11/10/24
f 11/10/24 19/10/39 20/5/40
f 16/9/32 18/9/36 19/10/38
f 19/10/38 11/10/23 16/9/32
f 26/13/53 5/15/9 31/14/63
f 31/14/63 29/16/60 26/13/53
f 5/15/10 6/15/11 55/17/106
f 55/17/106 56/17/108 5/15/10
f 31/14/62 39/18/79 71/18/149
f 71/18/149 66/14/137 31/14/62
f 39/18/78 32/19/65 67/19/139
f 67/19/139 71/18/148 39/18/78
f 41/20/83 42/21/84 76/21/161
f 76/21/161 74/20/158 41/20/83
f 53/22/104 35/22/71 10/23/21
f 10/23/21 8/23/16 53/22/104
f 2/24/5 1/24/2 60/25/116
f 60/25/116 51/25/100 2/24/5
f 50/26/98 44/26/88 46/27/90
f 46/27/90 27/27/56 50/26/98
f 34/12/69 41/20/82 74/20/157
f 74/20/157 69/12/144 34/12/69
f 21/7/42 15/7/30 35/22/71
f 35/22/71 53/22/104 21/7/42
f 1/24/1 2/24/4 28/8/58
f 28/8/58 30/8/61 1/24/1
f 26/13/54 54/13/105 6/15/11
f 6/15/11 5/15/10 26/13/54
f 9/2/18 12/2/25 40/28/80
f 40/28/80 59/28/115 9/2/18
f 5/15/9 56/17/107 39/18/77
f 39/18/77 31/14/63 5/15/9
f 37/29/73 48/31/94 47/30/92
f 47/30/92 52/32/102 37/29/73
f 34/12/68 33/11/67 25/1/51
f 25/1/51 9/2/17 34/12/68
f 59/28/115 40/28/80 8/23/15
f 8/23/15 10/23/20 59/28/115
f 33/11/67 52/32/102 38/3/76
f 38/3/76 25/1/51 33/11/67
f 51/25/100 60/25/116 54/13/105
f 54/13/105 26/13/54 51/25/100
f 58/33/112 57/34/111 73/34/155
f 73/34/155 75/33/159 58/33/112
f 57/34/110 29/16/59 65/16/135
f 65/16/135 73/34/154 57/34/110
f 15/7/29 42/21/85 41/20/81
f 41/20/81 35/22/70 15/7/29
f 51/25/99 26/13/53 29/16/60
f 29/16/60 57/34/109 51/25/99
f 56/17/108 55/17/106 44/26/87
f 44/26/87 50/26/97 56/17/108
f 41/20/81 34/12/68 9/2/17
f 9/2/17 59/28/114 41/20/81
f 2/24/3 51/25/99 57/34/109
f 57/34/109 28/8/57 2/24/3
f 37/29/74 52/32/103 72/32/152
f 72/32/152 70/29/145 37/29/74
f 52/32/102 47/30/92 7/35/14
f 7/35/14 38/3/76 52/32/102
f 52/32/101 33/11/66 68/11/142
f 68/11/142 72/32/151 52/32/101
f 48/31/93 43/31/86 49/30/95
f 49/30/95 47/30/91 48/31/93
f 28/8/57 57/34/109 58/33/113
f 58/33/113 22/6/43 28/8/57
f 22/6/43 58/33/113 42/21/85
f 42/21/85 15/7/29 22/6/43
f 47/30/91 49/30/95 3/35/7
f 3/35/7 7/35/13 47/30/91
f 73/34/153 65/16/136 64/5/132
f 64/5/133 75/33/160 73/34/153
f 75/33/160 64/5/133 63/4/130
f 63/4/130 76/21/162 75/33/160
f 65/16/136 66/14/138 61/10/120
f 61/10/120 64/5/132 65/16/136
f 66/14/138 71/18/147 67/19/140
f 67/19/140 61/10/119 66/14/138
f 61/10/118 67/19/140 70/29/146
f 70/29/146 62/9/125 61/10/118
f 63/4/129 62/9/124 68/11/141
f 68/11/141 69/12/143 63/4/129
f 76/21/162 63/4/128 69/12/143
f 69/12/143 74/20/156 76/21/162
f 62/9/125 70/29/146 72/32/150
f 72/32/150 68/11/141 62/9/124
f 32/19/65 37/29/74 70/29/145
f 70/29/145 67/19/139 32/19/65
f 24/5/49 23/4/47 63/4/127
f 63/4/127 64/5/131 24/5/49
f 23/4/46 16/9/33 62/9/123
f 62/9/123 63/4/126 23/4/46
f 16/9/32 11/10/23 61/10/117
f 61/10/117 62/9/122 16/9/32
f 29/16/59 31/14/62 66/14/137
f 66/14/137 65/16/135 29/16/59
f 35/22/70 41/20/81 59/28/114
f 59/28/114 10/23/19 35/22/70
f 42/21/84 58/33/112 75/33/159
f 75/33/159 76/21/161 42/21/84
f 7/35/12 3/35/6 36/3/72
f 36/3/72 38/3/75 7/35/12
f 56/17/107 50/26/96 27/27/55
f 27/27/55 39/18/77 56/17/107
f 32/19/64 17/36/35 48/31/94
f 48/31/94 37/29/73 32/19/64
f 27/27/56 46/27/90 45/36/89
f 45/36/89 17/36/34 27/27/56
f 39/18/77 27/27/55 17/36/35
f 17/36/35 32/19/64 39/18/77
f 17/36/34 45/36/89 43/31/86
f 43/31/86 48/31/93 17/36/34
f 11/10/22 16/9/31 23/4/45
f 23/4/45 24/5/48 11/10/22
